<svg xmlns="http://www.w3.org/2000/svg" width="805" height="600"><rect width="805" height="600" x="0" y="0" fill="#FFFFFF" id="background"/><g id="viz"><g transform="translate(0,0)"><g transform="translate(50,20)"><g class="bars"><rect id="undefined - pop" x="447.3994638069705" y="78.4" height="481.6" width="73.4014745308311" fill="#e377c2"/><rect id="undefined - chanson française" x="75.39879356568366" y="190.39999999999998" height="369.6" width="73.4014745308311" fill="#ff7f0e"/><rect id="undefined - hip-hop" x="149.79892761394103" y="329.59999999999997" height="230.40000000000003" width="73.4014745308311" fill="#2ca02c"/><rect id="undefined - jazz" x="298.5991957104558" y="398.4" height="161.60000000000002" width="73.4014745308311" fill="#9467bd"/><rect id="undefined - rock" x="596.1997319034853" y="435.2" height="124.80000000000001" width="73.4014745308311" fill="#bcbd22"/><rect id="undefined - musique de variétés" x="372.99932975871315" y="460.8" height="99.19999999999999" width="73.4014745308311" fill="#8c564b"/><rect id="undefined - hip-hop français" x="224.1990616621984" y="472" height="88" width="73.4014745308311" fill="#d62728"/><rect id="undefined - RnB contemporain" x="0.9986595174262902" y="473.6" height="86.39999999999998" width="73.4014745308311" fill="#1f77b4"/><rect id="undefined - zouk" x="670.5998659517426" y="480.00000000000006" height="79.99999999999994" width="73.4014745308311" fill="#17becf"/><rect id="undefined - reggae" x="521.799597855228" y="494.40000000000003" height="65.59999999999997" width="73.4014745308311" fill="#7f7f7f"/></g><g id="xAxis" transform="translate(0,560)" fill="none" font-size="10" font-family="sans-serif" text-anchor="middle"><path class="domain" stroke="currentColor" d="M0,0H745"/><g class="tick" opacity="1" transform="translate(37.69939678284184,0)"><line stroke="currentColor" y2="6"/><text fill="currentColor" y="9" dy="0.71em">RnB contemporain</text></g><g class="tick" opacity="1" transform="translate(112.0995308310992,0)"><line stroke="currentColor" y2="6"/><text fill="currentColor" y="9" dy="0.71em">chanson française</text></g><g class="tick" opacity="1" transform="translate(186.49966487935657,0)"><line stroke="currentColor" y2="6"/><text fill="currentColor" y="9" dy="0.71em">hip-hop</text></g><g class="tick" opacity="1" transform="translate(260.899798927614,0)"><line stroke="currentColor" y2="6"/><text fill="currentColor" y="9" dy="0.71em">hip-hop français</text></g><g class="tick" opacity="1" transform="translate(335.29993297587134,0)"><line stroke="currentColor" y2="6"/><text fill="currentColor" y="9" dy="0.71em">jazz</text></g><g class="tick" opacity="1" transform="translate(409.7000670241287,0)"><line stroke="currentColor" y2="6"/><text fill="currentColor" y="9" dy="0.71em">musique de variétés</text></g><g class="tick" opacity="1" transform="translate(484.1002010723861,0)"><line stroke="currentColor" y2="6"/><text fill="currentColor" y="9" dy="0.71em">pop</text></g><g class="tick" opacity="1" transform="translate(558.5003351206435,0)"><line stroke="currentColor" y2="6"/><text fill="currentColor" y="9" dy="0.71em">reggae</text></g><g class="tick" opacity="1" transform="translate(632.9004691689008,0)"><line stroke="currentColor" y2="6"/><text fill="currentColor" y="9" dy="0.71em">rock</text></g><g class="tick" opacity="1" transform="translate(707.3006032171581,0)"><line stroke="currentColor" y2="6"/><text fill="currentColor" y="9" dy="0.71em">zouk</text></g><text x="745" y="-4" text-anchor="end" style="font-family: Arial, sans-serif; font-size: 12px; fill: rgb(123, 123, 123); font-weight: bold;">genreLabel</text></g><g id="yAxis" fill="none" font-size="10" font-family="sans-serif" text-anchor="end"><path class="domain" stroke="currentColor" d="M-6,560H0V0H-6"/><g class="tick" opacity="1" transform="translate(0,560)"><line stroke="currentColor" x2="-6"/><text fill="currentColor" x="-9" dy="0.32em">0</text></g><g class="tick" opacity="1" transform="translate(0,480.00000000000006)"><line stroke="currentColor" x2="-6"/><text fill="currentColor" x="-9" dy="0.32em">50</text></g><g class="tick" opacity="1" transform="translate(0,400)"><line stroke="currentColor" x2="-6"/><text fill="currentColor" x="-9" dy="0.32em">100</text></g><g class="tick" opacity="1" transform="translate(0,320)"><line stroke="currentColor" x2="-6"/><text fill="currentColor" x="-9" dy="0.32em">150</text></g><g class="tick" opacity="1" transform="translate(0,240.00000000000003)"><line stroke="currentColor" x2="-6"/><text fill="currentColor" x="-9" dy="0.32em">200</text></g><g class="tick" opacity="1" transform="translate(0,160)"><line stroke="currentColor" x2="-6"/><text fill="currentColor" x="-9" dy="0.32em">250</text></g><g class="tick" opacity="1" transform="translate(0,80.00000000000003)"><line stroke="currentColor" x2="-6"/><text fill="currentColor" x="-9" dy="0.32em">300</text></g><g class="tick" opacity="1" transform="translate(0,0)"><line stroke="currentColor" x2="-6"/><text fill="currentColor" x="-9" dy="0.32em">350</text></g><text x="4" text-anchor="start" dominant-baseline="hanging" style="font-family: Arial, sans-serif; font-size: 12px; fill: rgb(123, 123, 123); font-weight: bold;">nombreDeChanteurs [sum]</text></g></g><text y="4" x="4" style="font-family: Arial, sans-serif; font-size: 12px; fill: black; font-weight: bold; dominant-baseline: hanging;"/></g></g></svg>